# xmcd
#
# Track frame offsets: 
#        183
#        28360
#        59955
#        83683
#        103715
#        144280
#        178200
#        198058
#        232998
#        247030
#        263323
#        279518
#        296740
#        310453
#
# Disc length: 4376 seconds
#
# Revision: 2
# Processed by: cddbd v1.5.1PL0 Copyright (c) Steve Scherf et al.
# Submitted via: ExactAudioCopy v0.95a4
#
DISCID=ce11160e
DTITLE=James Brown - Star Time Soul Brother No.1 [CD3]
DYEAR=1991
DGENRE=R&B
TTITLE0=Mother Popcorn
TTITLE1=Funky Drummer
TTITLE2=Get It Up (I Feel Like Being A) Sex Machine
TTITLE3=Super Bad, Parts 1 and 2
TTITLE4=Talkin' Loud and Sayin' Nothing
TTITLE5=Get Up, Get Into It And Get Involved
TTITLE6=Soul Power, Parts 1 and 2
TTITLE7=Brother Rapp/Ain't It Funky Now (Live)
TTITLE8=Hot Pants, Part 1
TTITLE9=I'm A Greedy Man, Part 1
TTITLE10=Make It Funky, Part 1
TTITLE11=It's A New Day (Live)
TTITLE12=I Got Ants In My Pants, Part 1
TTITLE13=King Heroin
EXTD=
EXTT0=
EXTT1=
EXTT2=
EXTT3=
EXTT4=
EXTT5=
EXTT6=
EXTT7=
EXTT8=
EXTT9=
EXTT10=
EXTT11=
EXTT12=
EXTT13=
PLAYORDER=
